<svg xmlns="http://www.w3.org/2000/svg" width="319" height="142" fill="none"><g fill="#43AB6D" clip-path="url(#a)"><path d="M64.1 108.4V95.9a33.4 33.4 0 0 1-13.4 11.8 35.5 35.5 0 0 1-46-17.3C1.6 84.3 0 77.4 0 70c0-7.5 1.6-14.3 4.7-20.5 3.1-6.1 7.5-11 13.2-14.7a35.3 35.3 0 0 1 19.7-5.5A32.6 32.6 0 0 1 59.1 37c2.3 2 3.9 4 4.7 5.8V31.5h28.4v76.9h-28ZM28.1 70A18.2 18.2 0 0 0 37 86a18 18 0 0 0 9 2.2 16.9 16.9 0 0 0 15.4-8.8c1.6-2.8 2.3-5.9 2.3-9.4s-.7-6.6-2.3-9.4c-1.5-2.8-3.6-5-6.2-6.5a17.3 17.3 0 0 0-9.1-2.4A18 18 0 0 0 28 70ZM94.2 31.5h13.2V0h28.3v31.5H153V55h-17.3v21.5c0 3.1.4 5.7 1.4 7.7 1 2 2.6 3 5.2 3a8 8 0 0 0 4.3-1.2c1.2-.7 1.9-1.2 2.1-1.5l9.8 20.2a51.3 51.3 0 0 1-24.5 6c-7.7 0-14-2.1-19.1-6.5-5-4.3-7.5-11-7.5-20V54.8H94.2V31.5Z"/><path d="M219.4 108.4V95.9c-.5 1.3-2 3-4.2 5.4a33.4 33.4 0 0 1-9.1 6.5 35.5 35.5 0 0 1-46-17.3c-3.2-6.2-4.8-13-4.8-20.5s1.6-14.3 4.7-20.5c3.2-6.1 7.5-11 13.2-14.7a35.3 35.3 0 0 1 19.7-5.5 32.6 32.6 0 0 1 21.6 7.7c2.2 2 3.8 4 4.7 5.8V31.5h28.4v76.9h-28.2Zm-36-38.4a18.2 18.2 0 0 0 9 16 18 18 0 0 0 9 2.2 16.9 16.9 0 0 0 15.4-8.8c1.5-2.8 2.3-5.9 2.3-9.4s-.8-6.6-2.3-9.4a17.3 17.3 0 0 0-15.4-9 18 18 0 0 0-18 18.3ZM278.3 108.4h-28.6V31.5h28.6v12h-.5c.5-1.5 1.7-3.3 3.7-5.5a26.9 26.9 0 0 1 21-8.7c3.6 0 7 .5 10 1.6s5.1 2.2 6.5 3.2l-11 23a18 18 0 0 0-13-5c-3.9 0-7 1-9.5 3-2.5 1.9-4.3 4.2-5.5 7a20 20 0 0 0-1.7 7.7v38.6ZM45.8 129.1h.7v12.5h-.7v-12.5ZM53.5 130.6v11h-.7v-12.9h.3l8.8 11.5v-11h.7V142h-.3l-8.8-11.4ZM71.8 129.8h-4.2v-.7h9.2v.7h-4.3v11.8h-.7v-11.8ZM81.8 129.1h6.1v.7h-5.4v5h4.2v.7h-4.2v5.5H88v.6h-6.2v-12.5ZM93.5 129.1h.7V141h5.4v.6h-6.1v-12.5ZM104.9 129.1h.7v12.5h-.7v-12.5ZM111.2 135.4A6.3 6.3 0 0 1 122 131l-.6.5c-1-1.1-2.4-1.7-4-1.7-3 0-5.5 2.5-5.5 5.7 0 3.3 2.3 5.7 5.6 5.7 1.6 0 3-.6 4.1-1.6v-3.7h-4.4v-.7h5.1v4.6c-1.2 1.3-3 2-4.8 2a6.3 6.3 0 0 1-6.3-6.3ZM128.2 129.1h6.2v.7h-5.5v5h4.2v.7H129v5.5h5.6v.6h-6.3v-12.5Zm.8-1.8 2.3-1.8 2.2 1.8-.4.5-1.8-1.4-1.9 1.4-.4-.5ZM140.6 130.6v11h-.7v-12.9h.3l8.8 11.5v-11h.7V142h-.3l-8.8-11.4ZM155.2 135.4a6.3 6.3 0 0 1 10.9-4.5l-.6.5a5.6 5.6 0 0 0-9.5 4c0 3.3 2.3 5.7 5.6 5.7 1.5 0 3-.6 4-1.8l.6.5c-1.3 1.3-3 2-4.7 2a6.2 6.2 0 0 1-6.3-6.4ZM171.6 129.1h.7v12.5h-.7v-12.5ZM182.4 128.7h.3l4.7 13h-.8l-1.3-3.9h-5.5l-1.4 3.8h-.7l4.7-12.9Zm2.6 8.4-2.4-6.7-2.5 6.7h5ZM199.5 129.1h3.8c4 0 6.9 2.7 6.9 6.2 0 3.6-3 6.3-7 6.3h-3.7v-12.5Zm3.8 11.9c3.5 0 6.1-2.4 6.1-5.7 0-3.2-2.6-5.5-6.1-5.5h-3V141h3ZM215.7 129.1h.8v12.5h-.8v-12.5ZM222 135.4A6.3 6.3 0 0 1 233 131l-.6.5c-1-1.1-2.5-1.7-4-1.7-3 0-5.5 2.5-5.5 5.7 0 3.3 2.3 5.7 5.6 5.7 1.5 0 3-.6 4-1.6v-3.7h-4.3v-.7h5v4.6c-1.1 1.3-2.9 2-4.8 2a6.3 6.3 0 0 1-6.3-6.3ZM239 129.1h.8v12.5h-.8v-12.5ZM249 129.8h-4.3v-.7h9.2v.7h-4.2v11.8h-.7v-11.8ZM261.2 128.7h.3l4.7 13h-.8l-1.3-3.9h-5.5l-1.4 3.8h-.7l4.7-12.9Zm2.6 8.4-2.4-6.7-2.5 6.7h5ZM271.6 129.1h.7V141h5.4v.6h-6v-12.5Z"/></g><defs><clipPath id="a"><path fill="#fff" d="M0 0h319v142H0z"/></clipPath></defs></svg>